<svg width="76.51000213623047" height="77.02999877929688" xmlns="http://www.w3.org/2000/svg"
    preserveAspectRatio="xMidYMid meet">

    <g>
        <path fill="#CF1322"
            d="m10.48,16.59l12.38,0l0,16.95l10.47,0l0,5.14l-26.15,0l0,5.13l10.44,0l0,33.21l25.34,0l0,-38.34l5.24,0l0,-22.09l23.07,0l0,-16.59l-71.27,0l0,16.59l10.48,0z" />
        <path fill="#CF1322" d="m7.19,54.84l5.14,0l0,5.14l-5.14,0l0,-5.14z" />
        <path fill="#13C2C2"
            d="m22.86,16.59l5.23,0l0,16.95l5.24,0l0,5.14l-10.47,0l0,38.34l25.34,0l0,-38.34l15.17,0l0,-5.14l-9.93,0l0,-11.81l-5.24,0l0,-5.14l28.31,0l0,-16.59l-71.27,0l0,16.59l17.62,0z" />
        <path fill="#13C2C2"
            d="m48.22,71.89l10.51,0l0,5.14l-10.51,0l0,-5.14zm15.15,-28.08l5.14,0l0,5.14l-5.14,0l0,-5.14z" />
        <path fill="#000b34"
            d="m22.86,16.59l5.23,0l0,16.95l5.24,0l0,5.14l-10.47,0l0,38.34l20.1,0l0,-38.34l5.24,0l0,-22.09l23.07,0l0,-16.59l-66.03,0l0,16.59l17.62,0z" />
    </g>
</svg>