<svg width="179.04001039193645" height="56.783287048339844" xmlns="http://www.w3.org/2000/svg"
  preserveAspectRatio="xMidYMid meet">

  <g fill="#CF1322">
    <g>
      <svg height="56.78329" width="56.4" y="0" x="0">
        <g>
          <svg viewBox="0 0 76.51000213623047 77.02999877929688">
            <g>
              <path
                d="m10.48,16.59l12.38,0l0,16.95l10.47,0l0,5.14l-26.15,0l0,5.13l10.44,0l0,33.21l25.34,0l0,-38.34l5.24,0l0,-22.09l23.07,0l0,-16.59l-71.27,0l0,16.59l10.48,0z"
                fill="#CF1322" />
              <path d="m7.19,54.84l5.14,0l0,5.14l-5.14,0l0,-5.14z" fill="#CF1322" />
              <path
                d="m22.86,16.59l5.23,0l0,16.95l5.24,0l0,5.14l-10.47,0l0,38.34l25.34,0l0,-38.34l15.17,0l0,-5.14l-9.93,0l0,-11.81l-5.24,0l0,-5.14l28.31,0l0,-16.59l-71.27,0l0,16.59l17.62,0z"
                fill="#13C2C2" />
              <path d="m48.22,71.89l10.51,0l0,5.14l-10.51,0l0,-5.14zm15.15,-28.08l5.14,0l0,5.14l-5.14,0l0,-5.14z"
                fill="#13C2C2" />
              <path
                d="m22.86,16.59l5.23,0l0,16.95l5.24,0l0,5.14l-10.47,0l0,38.34l20.1,0l0,-38.34l5.24,0l0,-22.09l23.07,0l0,-16.59l-66.03,0l0,16.59l17.62,0z"
                fill="#000b34" />
            </g>
          </svg>
        </g>
      </svg>
    </g>
    <g>
      <path
        d="m95.51,0.47164l0,0l0,0q-13.84,0 -22.94,8.78l0,0q-9.17,8.7 -9.17,21.9l0,0q0,11.05 7.81,18.26l0,0q7.8,7.16 19.76,7.16l0,0q13.78,0 22.61,-8.71l0,0q8.85,-8.65 8.85,-22.43l0,0q0,-11.05 -7.48,-18l0,0q-7.54,-6.96 -19.44,-6.96zm-4.48,45.95l0,0l0,0q-6.89,0 -11.24,-4.42l0,0q-4.36,-4.41 -4.36,-11.37l0,0q0,-8.26 5.72,-14.17l0,0q5.72,-5.92 13.59,-5.92l0,0q6.82,0 11.24,4.43l0,0q4.49,4.41 4.49,11.24l0,0q0,8.45 -5.66,14.37l0,0q-5.66,5.84 -13.78,5.84zm87.49,-41.47l0.52,-2.79l0,0q-7.99,-2.01 -14.95,-2.01l0,0q-15.86,0 -25.87,8.77l0,0q-10.01,8.77 -10.01,22.49l0,0q0,11.24 7.41,18.2l0,0q7.41,7.02 19.37,7.02l0,0q9.56,0 19.37,-4.35l0,0l0,-0.07q0.39,-3.9 -2.37,-6.14q-2.77,-2.25 -6.53,-1.21l0,0q-5.01,1.56 -9.43,1.56l0,0q-7.21,0 -11.44,-3.96l0,0q-4.29,-4.03 -4.29,-10.79l0,0q0,-8.58 6.17,-15.02l0,0q6.18,-6.36 17.36,-6.36l0,0q3.25,0 6.5,0.45l0,0q2.93,0.39 5.23,-1.24q2.31,-1.62 2.96,-4.55l0,0z" />
    </g>
  </g>
</svg>